<?xml version="1.0" encoding="UTF-8"?>
<svg id="Layer_1" data-name="Layer 1" xmlns="http://www.w3.org/2000/svg" viewBox="0 0 85.04 85.09">
  <defs>
    <style>
      .cls-1 {
        fill: #5e5e5e;
        stroke-width: 0px;
      }
    </style>
  </defs>
  <path class="cls-1" d="m42.57,55.15c-.44.42-.8.74-1.13,1.08-8.2,8.24-16.39,16.48-24.58,24.72-.47.47-.92.94-1.4,1.4-3.01,2.89-6.45,3.51-9.9,1.77-3.63-1.83-5.76-5.57-5.31-9.38.24-2.07,1.35-3.68,2.77-5.12,4.78-4.81,9.54-9.64,14.33-14.43,4.16-4.17,8.36-8.31,13-12.92-.55-.29-1.08-.43-1.41-.76C20.24,32.9,11.57,24.27,2.9,15.63-.08,12.65-.77,9.23.86,5.78,2.61,2.09,6.41-.14,10.26.26c2.18.23,3.84,1.41,5.34,2.9,4.62,4.59,9.25,9.17,13.87,13.77,3.99,3.97,7.97,7.96,11.96,11.94.34.34.69.66,1.1,1.05.38-.36.74-.67,1.07-1.01,8.72-8.71,17.43-17.43,26.15-26.14,2.57-2.56,5.6-3.52,9.04-2.14,3.63,1.46,5.84,4.19,6.23,8.14.27,2.74-1.02,4.91-2.91,6.8-8.6,8.58-17.18,17.18-25.78,25.76-.37.37-.83.65-1.32,1.02.52.56.83.91,1.16,1.25,8.57,8.61,17.12,17.24,25.72,25.83,2.55,2.55,3.79,5.45,2.55,8.95-1.31,3.68-3.97,5.97-7.9,6.54-2.53.37-4.69-.56-6.47-2.3-3.17-3.11-6.3-6.27-9.44-9.42-5.97-5.98-11.94-11.96-18.03-18.06Z"/>
</svg>