<svg width="21" height="14" viewBox="0 0 21 14" fill="none" xmlns="http://www.w3.org/2000/svg">
<g id="Group">
<g id="Group_2">
<path id="Vector" d="M17.7164 1.92121C17.7164 0.876295 16.7851 0.0213623 15.647 0.0213623H12.5428V1.92121H15.647V4.43851L12.0462 8.57069H8.40399V3.82106H4.26515C1.97844 3.82106 0.126312 5.52143 0.126312 7.62076V10.4705H2.19573C2.19573 12.0474 3.58224 13.3203 5.29986 13.3203C7.01748 13.3203 8.40399 12.0474 8.40399 10.4705H13.0395L17.7164 5.10346V1.92121ZM5.29986 11.4205C4.73077 11.4205 4.26515 10.993 4.26515 10.4705H6.33457C6.33457 10.993 5.86895 11.4205 5.29986 11.4205Z" fill="black"/>
<path id="Vector_2" d="M8.40399 0.971252H3.23042V2.87108H8.40399V0.971252Z" fill="black"/>
<path id="Vector_3" d="M17.7164 7.62073C15.9987 7.62073 14.6122 8.89362 14.6122 10.4705C14.6122 12.0474 15.9987 13.3202 17.7164 13.3202C19.434 13.3202 20.8205 12.0474 20.8205 10.4705C20.8205 8.89362 19.434 7.62073 17.7164 7.62073ZM17.7164 11.4204C17.1473 11.4204 16.6817 10.9929 16.6817 10.4705C16.6817 9.94803 17.1473 9.52057 17.7164 9.52057C18.2855 9.52057 18.7511 9.94803 18.7511 10.4705C18.7511 10.9929 18.2855 11.4204 17.7164 11.4204Z" fill="black"/>
</g>
</g>
</svg>
