<?xml version="1.0" encoding="UTF-8"?>
<svg id="Layer_1" data-name="Layer 1" xmlns="http://www.w3.org/2000/svg" viewBox="0 0 20.48 31">
  <defs>
    <style>
      .cls-1 {
        fill: #8b8b8b;
        fill-rule: evenodd;
        stroke: #8b8b8b;
      }
    </style>
  </defs>
  <path class="cls-1" d="m17.36,12.87l-.48,3.53h-5.8v12.34h-3.53v-12.34H2.26v-3.53h5.29v-3.23c0-4.48,2.75-7.38,7.02-7.38,1.83,0,2.96.1,3.62.19l-.05,3.34h-2.71c-.07,0-1.84-.14-3.11,1.03-.82.75-1.24,1.83-1.24,3.21v2.84h6.28Zm-3.86-4.75c.69-.65,1.78-.58,1.86-.57h4.52s.1-6.53.1-6.53l-.68-.17c-.44-.11-1.77-.36-4.72-.36-5.25,0-8.78,3.68-8.78,9.14v1.47H.5v7.05h5.29v12.34h7.05v-12.34h5.57l.97-7.05h-6.54v-1.08c0-.86.22-1.5.66-1.91Z"/>
</svg>