<?xml version="1.0" encoding="UTF-8"?>
<svg id="Layer_1" data-name="Layer 1" xmlns="http://www.w3.org/2000/svg" viewBox="0 0 30 30">
  <defs>
    <style>
      .cls-1 {
        fill: #8b8b8b;
        fill-rule: evenodd;
        stroke-width: 0px;
      }
    </style>
  </defs>
  <path class="cls-1" d="m0,13.09c0-4.58,0-6.87.89-8.62.78-1.54,2.04-2.79,3.58-3.58,1.75-.89,4.04-.89,8.62-.89h3.82c4.58,0,6.87,0,8.62.89,1.54.78,2.79,2.04,3.58,3.58.89,1.75.89,4.04.89,8.62h0v3.82h0c0,4.58,0,6.87-.89,8.62-.78,1.54-2.04,2.79-3.58,3.58-1.75.89-4.04.89-8.62.89h-3.82c-4.58,0-6.87,0-8.62-.89-1.54-.78-2.79-2.04-3.58-3.58-.89-1.75-.89-4.04-.89-8.62v-3.82ZM13.09,2.73h3.82c2.34,0,3.92,0,5.15.1,1.2.1,1.81.27,2.23.49,1.03.52,1.86,1.36,2.38,2.38.22.43.39,1.04.49,2.23.1,1.23.1,2.82.1,5.15v3.82c0,2.34,0,3.92-.1,5.15-.1,1.2-.27,1.81-.49,2.23-.52,1.03-1.36,1.86-2.38,2.38-.43.22-1.04.39-2.23.49-1.23.1-2.82.1-5.15.1h-3.82c-2.34,0-3.92,0-5.15-.1-1.2-.1-1.81-.27-2.23-.49-1.03-.52-1.86-1.36-2.38-2.38-.22-.43-.39-1.04-.49-2.23-.1-1.23-.1-2.82-.1-5.15v-3.82c0-2.34,0-3.92.1-5.15.1-1.2.27-1.81.49-2.23.52-1.03,1.36-1.86,2.38-2.38.43-.22,1.04-.39,2.23-.49,1.23-.1,2.82-.1,5.15-.1Zm10.09,2.73c-.75,0-1.36.61-1.36,1.36s.61,1.36,1.36,1.36,1.36-.61,1.36-1.36-.61-1.36-1.36-1.36Zm-8.18,17.73c4.52,0,8.18-3.66,8.18-8.18s-3.66-8.18-8.18-8.18-8.18,3.66-8.18,8.18,3.66,8.18,8.18,8.18Zm0-2.73c3.01,0,5.45-2.44,5.45-5.45s-2.44-5.45-5.45-5.45-5.45,2.44-5.45,5.45,2.44,5.45,5.45,5.45Z"/>
</svg>