<?xml version="1.0" encoding="UTF-8"?>
<svg id="Layer_1" data-name="Layer 1" xmlns="http://www.w3.org/2000/svg" viewBox="0 0 141.73 106.52">
  <defs>
    <style>
      .cls-1 {
        fill: #5e5e5e;
        stroke-width: 0px;
      }
    </style>
  </defs>
  <path class="cls-1" d="m0,49.94c3.34-7.54,9.24-9.99,17.29-9.94,35.75.23,71.5.1,107.25.1,1.66,0,3.33-.07,4.97.12,7.03.81,12.08,6.12,12.22,12.75.15,6.85-4.95,12.45-12.22,13.31-1.64.19-3.31.13-4.97.13-35.75,0-71.5-.12-107.25.1-8.03.05-13.94-2.41-17.3-9.93v-6.65Z"/>
  <path class="cls-1" d="m0,89.84c3.36-7.22,9.05-9.75,16.91-9.7,35.99.22,71.99.09,107.98.11,2.02,0,4.08.02,6.06.38,6.44,1.16,10.85,6.5,10.79,12.82-.06,6.24-4.67,11.66-11,12.74-1.8.31-3.68.23-5.52.23-36.18.01-72.36-.12-108.53.11-7.96.05-13.53-2.67-16.68-10.03v-6.65Z"/>
  <path class="cls-1" d="m0,10.03C3.13,2.64,8.71-.05,16.67,0c36.18.23,72.36.08,108.53.14,2.72,0,5.58.21,8.14,1.04,5.24,1.71,8.56,6.99,8.37,12.43-.2,5.72-4.08,10.7-9.7,12.01-2.3.54-4.75.63-7.13.64-35.99.04-71.99-.1-107.98.12-7.85.05-13.54-2.5-16.91-9.7v-6.65Z"/>
</svg>