<?xml version="1.0" encoding="UTF-8"?>
<svg id="Layer_1" data-name="Layer 1" xmlns="http://www.w3.org/2000/svg" viewBox="0 0 37.21 31">
  <defs>
    <style>
      .cls-1 {
        fill: none;
        stroke: #8b8b8b;
        stroke-linecap: round;
        stroke-linejoin: round;
        stroke-width: 3px;
      }
    </style>
  </defs>
  <path class="cls-1" d="m32.23,8.6v.92c0,9.31-7.06,19.98-19.99,19.98-3.82,0-7.55-1.1-10.74-3.19.55.08,1.11.11,1.67.1,3.16,0,6.24-1.05,8.73-3-1.47-.02-2.89-.51-4.07-1.38-1.18-.88-2.05-2.11-2.49-3.51.44.09.88.14,1.33.14.62,0,1.25-.08,1.85-.25-1.59-.32-3.02-1.18-4.05-2.43-1.03-1.26-1.59-2.83-1.58-4.45v-.09c.97.54,2.07.84,3.18.87-1.48-.98-2.54-2.48-2.95-4.21-.41-1.73-.15-3.55.74-5.09,1.77,2.17,3.97,3.95,6.47,5.21,2.5,1.26,5.23,1.99,8.03,2.13-.14-.52-.2-1.07-.19-1.61-.05-1.43.34-2.85,1.12-4.05.78-1.2,1.91-2.14,3.25-2.67,1.33-.54,2.79-.65,4.19-.32,1.4.33,2.66,1.07,3.62,2.14,1.57-.32,3.08-.9,4.47-1.71-.52,1.66-1.64,3.06-3.13,3.95,1.4-.19,2.76-.58,4.04-1.16-.93,1.43-2.11,2.68-3.48,3.7Z"/>
</svg>